<svg width="309" height="227" viewBox="0 0 309 227" fill="none" xmlns="http://www.w3.org/2000/svg">
<path fill-rule="evenodd" clip-rule="evenodd" d="M132.259 36.8865C131.024 45.2803 128.905 53.9829 126.749 62.204C126.607 62.7472 126.478 63.3342 126.345 63.9413C125.775 66.5396 125.124 69.5058 122.966 70.9795C120.5 72.6631 116.47 72.4271 113.064 72.2277C112.039 72.1676 111.071 72.1109 110.219 72.1109C108.107 72.1109 105.778 71.9941 103.338 71.8718C94.3267 71.4201 83.8035 70.8925 77.1741 75.8897C66.1427 84.2051 67.2017 102.617 80.4641 108.185C87.7275 111.234 97.9286 110.572 107.085 109.978C110.556 109.752 113.877 109.537 116.831 109.537C116.226 111.872 115.85 114.683 115.458 117.608C114.69 123.344 113.863 129.519 111.14 133.404C109.259 136.086 105.456 136.382 101.558 136.686C98.2891 136.94 94.954 137.2 92.63 138.876C77.6001 149.713 86.1233 171.87 103.606 172.28C103.244 174.148 102.805 176.002 102.367 177.856C101.427 181.834 100.487 185.808 100.3 189.893C97.9671 189.893 95.3202 189.729 92.5228 189.556C82.957 188.964 71.6319 188.264 65.0831 193.629C54.4527 202.338 56.9878 222.881 71.6469 225.911C79.1706 227.466 87.7814 227.023 96.0554 226.598C99.7864 226.406 103.449 226.218 106.912 226.218C114.582 226.218 122.254 226.248 129.926 226.277H129.929C145.402 226.337 160.876 226.397 176.341 226.213C215.65 225.747 255.459 207.636 278.465 175.484C292.064 156.478 299.188 135.268 304.702 112.839C312.024 83.054 311.801 47.35 289.537 23.7758C277.947 11.5031 260.904 5.59021 244.668 2.85195C224.382 -0.569403 203.327 -0.141122 182.514 0.282248C175.642 0.422021 168.797 0.561258 162.015 0.561258H104.708C103.339 0.561258 101.923 0.515041 100.484 0.468082C93.5956 0.243272 86.187 0.0014828 80.8816 4.73249C71.608 13.0021 73.5933 29.7108 84.8757 35.1555C88.9995 37.1456 93.8282 37.0361 98.419 36.932C99.4282 36.9091 100.426 36.8865 101.402 36.8865H132.259ZM179.648 36.8863C174.779 61.9478 169.303 86.971 163.837 111.95L163.835 111.96C162.244 119.228 160.655 126.493 159.081 133.754C157.951 138.969 156.732 144.186 155.511 149.409L155.51 149.411C152.461 162.46 149.4 175.555 147.688 188.792C149.663 188.792 151.644 188.8 153.63 188.809H153.632C178.66 188.919 204.389 189.032 224.644 171.809C246.816 152.959 254.804 124.006 258.207 96.3276C260.138 80.6215 257.987 61.7647 245.671 50.4267C230.319 36.2935 207.484 36.5745 187.298 36.8228C184.697 36.8549 182.139 36.8863 179.648 36.8863Z" fill="white"/>
<path d="M18.5498 106.455C8.56804 97.5704 11.017 79.5672 24.2591 75.0861C27.0293 74.1487 30.112 74.2157 33.077 74.2802C33.8209 74.2964 34.5573 74.3124 35.2796 74.3124C36.5633 74.3123 37.8696 74.278 39.1849 74.2435C46.3425 74.0555 53.7665 73.8606 59.2772 79.1333C67.8441 87.3301 65.0673 104.993 53.9157 109.39C45.3606 112.763 25.6341 112.76 18.5498 106.455Z" fill="white"/>
<path d="M32.3084 163.822C22.0389 154.617 25.819 135.507 39.6877 132.139C48.4949 130 64.6099 129.609 71.443 136.191C80.8281 145.23 78.7358 163.667 65.0348 167.263C56.44 169.519 39.1484 169.952 32.3084 163.822Z" fill="white"/>
<path d="M4.66965 220.598C-3.77248 211.45 -0.466665 194.053 12.1528 190.567C20.0584 188.385 34.6332 188.29 40.9616 194.075C51.202 203.439 47.6868 221.426 34.1775 225.503C25.4937 228.124 11.0546 227.518 4.66965 220.598Z" fill="white"/>
</svg>
